<?xml version="1.0" standalone="no"?>
<!DOCTYPE svg PUBLIC "-//W3C//DTD SVG 20010904//EN"
 "http://www.w3.org/TR/2001/REC-SVG-20010904/DTD/svg10.dtd">
<svg version="1.0" xmlns="http://www.w3.org/2000/svg"
 width="1240.000000pt" height="1754.000000pt" viewBox="0 0 1240.000000 1754.000000"
 preserveAspectRatio="xMidYMid meet">

<g transform="translate(0.000000,1754.000000) scale(0.100000,-0.100000)"
fill="#000000" stroke="none">
<path d="M6115 11330 c-968 -62 -1809 -696 -2140 -1615 -48 -135 -89 -301
-115 -470 -30 -196 -30 -493 0 -690 81 -534 314 -1000 688 -1374 377 -376 842
-610 1377 -691 198 -30 494 -30 690 0 321 49 639 160 881 307 l71 43 429 -194
c558 -251 681 -306 692 -306 5 0 15 7 22 15 10 12 5 34 -23 117 -67 194 -113
308 -327 813 -98 233 -95 223 -78 243 8 9 42 62 75 117 334 559 431 1221 272
1857 -151 606 -559 1154 -1104 1484 -413 251 -920 374 -1410 344z m510 -339
c911 -164 1592 -855 1742 -1766 25 -156 25 -508 -1 -655 -60 -346 -192 -661
-389 -928 -35 -48 -45 -68 -38 -81 5 -9 9 -37 9 -61 0 -35 26 -107 115 -315
62 -148 113 -271 112 -273 -3 -4 -219 94 -339 155 -60 30 -145 68 -189 84 -45
17 -86 34 -93 40 -8 6 -42 -11 -108 -55 -248 -166 -535 -278 -846 -332 -149
-26 -501 -26 -655 0 -459 77 -857 279 -1174 597 -319 320 -527 730 -598 1177
-24 148 -24 496 0 644 134 840 749 1521 1567 1732 82 21 215 45 340 60 91 11
439 -3 545 -23z"/>
</g>
</svg>
