<?xml version="1.0" ?><svg fill="none" height="24" viewBox="0 0 24 24" width="24" xmlns="http://www.w3.org/2000/svg"><path clip-rule="evenodd" d="M20.8536 3.14645C20.9963 3.28918 21.0392 3.50373 20.9623 3.69037L13.9623 20.6904C13.8801 20.8901 13.679 21.0144 13.4636 20.9987C13.2483 20.983 13.0673 20.8308 13.0149 20.6213L11.0877 12.9123L3.37874 10.9851C3.16924 10.9327 3.01704 10.7517 3.00133 10.5364C2.98562 10.321 3.10996 10.1199 3.30963 10.0377L20.3096 3.03766C20.4963 2.96081 20.7108 3.00372 20.8536 3.14645ZM5.09592 10.3836L11.6213 12.0149C11.8004 12.0597 11.9403 12.1996 11.9851 12.3787L13.6164 18.9041L19.5808 4.41924L5.09592 10.3836Z" fill="black" fill-rule="evenodd"/><path clip-rule="evenodd" d="M20.8536 3.14645C21.0488 3.34171 21.0488 3.65829 20.8536 3.85355L11.8536 12.8536C11.6583 13.0488 11.3417 13.0488 11.1464 12.8536C10.9512 12.6583 10.9512 12.3417 11.1464 12.1464L20.1464 3.14645C20.3417 2.95118 20.6583 2.95118 20.8536 3.14645Z" fill="black" fill-rule="evenodd"/></svg>