<?xml version="1.0" ?><svg fill="none" height="24" viewBox="0 0 24 24" width="24" xmlns="http://www.w3.org/2000/svg"><path clip-rule="evenodd" d="M17.3035 6.69649C17.445 6.83793 17.4885 7.05004 17.4142 7.23574L14.5858 14.3068C14.5234 14.4629 14.3867 14.5771 14.2221 14.6109C14.0574 14.6447 13.8868 14.5935 13.768 14.4747L9.52536 10.232C9.40652 10.1132 9.35533 9.94258 9.38913 9.77794C9.42292 9.6133 9.53717 9.47666 9.69322 9.41424L16.7643 6.58581C16.95 6.51153 17.1621 6.55506 17.3035 6.69649ZM10.7686 10.0611L13.9389 13.2314L16.0525 7.94758L10.7686 10.0611Z" fill="black" fill-rule="evenodd"/><path clip-rule="evenodd" d="M9.77771 9.38869C9.94235 9.3549 10.113 9.40608 10.2318 9.52493L14.4744 13.7676C14.5933 13.8864 14.6445 14.057 14.6107 14.2217C14.5769 14.3863 14.4626 14.5229 14.3066 14.5854L7.23551 17.4138C7.04981 17.4881 6.8377 17.4445 6.69627 17.3031C6.55483 17.1617 6.5113 16.9496 6.58558 16.7639L9.41401 9.69278C9.47643 9.53673 9.61307 9.42248 9.77771 9.38869ZM10.0609 10.7682L7.94735 16.052L13.2312 13.9385L10.0609 10.7682Z" fill="black" fill-rule="evenodd"/><path clip-rule="evenodd" d="M11.999 2.49991C6.75232 2.49991 2.49902 6.7532 2.49902 11.9999C2.49902 17.2466 6.75232 21.4999 11.999 21.4999C17.2457 21.4999 21.499 17.2466 21.499 11.9999C21.499 6.7532 17.2457 2.49991 11.999 2.49991ZM1.49902 11.9999C1.49902 6.20092 6.20003 1.49991 11.999 1.49991C17.798 1.49991 22.499 6.20092 22.499 11.9999C22.499 17.7989 17.798 22.4999 11.999 22.4999C6.20003 22.4999 1.49902 17.7989 1.49902 11.9999Z" fill="black" fill-rule="evenodd"/></svg>