<?xml version="1.0" encoding="utf-8"?>
<!-- Generator: Adobe Illustrator 23.0.1, SVG Export Plug-In . SVG Version: 6.00 Build 0)  -->
<svg version="1.1" id="Layer_1" xmlns="http://www.w3.org/2000/svg" xmlns:xlink="http://www.w3.org/1999/xlink" x="0px" y="0px"
	 viewBox="0 0 512 512" style="enable-background:new 0 0 512 512;" xml:space="preserve">
<style type="text/css">
	.st0{fill-rule:evenodd;clip-rule:evenodd;fill:#1B1B1B;}
</style>
<path class="st0" d="M453.7,454c-1.3,1.3-3,2-4.7,2c-1.7,0-3.4-0.7-4.7-2l-143-143.2c-26,23.8-60.6,38.5-98.6,38.5
	c-80.7,0-146.4-65.8-146.4-146.7S122,56,202.7,56s146.4,65.8,146.4,146.7c0,38-14.7,72.6-38.5,98.7l143,143.2
	C456.3,447.2,456.3,451.4,453.7,454z M202.7,69.3c-73.4,0-133.1,59.8-133.1,133.3S129.3,336,202.7,336
	c73.4,0,133.1-59.8,133.1-133.3S276.2,69.3,202.7,69.3z"/>
</svg>
