<?xml version="1.0" standalone="no"?>
<!DOCTYPE svg PUBLIC "-//W3C//DTD SVG 20010904//EN"
 "http://www.w3.org/TR/2001/REC-SVG-20010904/DTD/svg10.dtd">
<svg version="1.0" xmlns="http://www.w3.org/2000/svg"
 width="512.000000pt" height="512.000000pt" viewBox="0 0 512.000000 512.000000"
 preserveAspectRatio="xMidYMid meet">

<g transform="translate(0.000000,512.000000) scale(0.100000,-0.100000)"
fill="#000000" stroke="none">
<path d="M2360 4270 c-403 -56 -739 -220 -1014 -495 -674 -674 -674 -1756 0
-2429 367 -367 886 -552 1395 -496 764 83 1372 654 1516 1423 21 116 24 436 5
547 -132 747 -677 1302 -1407 1436 -105 19 -399 27 -495 14z m460 -176 c624
-105 1125 -585 1261 -1205 58 -265 41 -561 -45 -825 -39 -116 -136 -306 -213
-413 -218 -305 -563 -531 -934 -612 -265 -58 -561 -41 -825 45 -116 39 -306
136 -413 213 -305 218 -531 563 -612 934 -30 139 -41 311 -29 450 19 219 64
380 160 574 239 481 711 804 1249 855 107 10 288 3 401 -16z"/>
<path d="M3138 2685 c-43 -29 -74 -98 -64 -146 14 -74 73 -119 155 -119 55 0
99 28 126 81 32 60 13 133 -45 183 -43 36 -120 37 -172 1z"/>
<path d="M1822 2680 c-127 -77 -73 -270 76 -270 77 0 133 47 147 122 9 50 -23
121 -67 148 -43 26 -113 26 -156 0z"/>
<path d="M1873 1909 c-28 -10 -53 -47 -53 -79 0 -35 86 -136 180 -211 90 -72
224 -140 340 -171 120 -32 318 -32 439 0 167 45 302 123 433 250 86 83 108
125 88 172 -14 33 -59 55 -94 46 -13 -3 -44 -29 -68 -58 -61 -73 -181 -166
-263 -203 -302 -139 -680 -58 -871 186 -26 32 -47 59 -48 59 -1 0 -15 4 -31 9
-17 4 -40 5 -52 0z"/>
</g>
</svg>
